<?xml version="1.0" standalone="no"?><!DOCTYPE svg PUBLIC "-//W3C//DTD SVG 1.1//EN" "http://www.w3.org/Graphics/SVG/1.1/DTD/svg11.dtd"><svg t="1623218510162" class="icon" viewBox="0 0 1024 1024" version="1.1" xmlns="http://www.w3.org/2000/svg" p-id="12428" width="64" height="64" xmlns:xlink="http://www.w3.org/1999/xlink"><defs><style type="text/css"></style></defs><path d="M1013.248 486.4l-476.16-476.16c-13.824-13.824-35.84-13.824-49.664 0l-476.16 476.16c-22.016 22.016-6.656 59.904 25.088 59.904H112.64v404.48c0 40.448 32.768 73.216 73.216 73.216h120.32c33.28 0 59.904-27.136 59.904-59.904v-86.016c0-40.448 32.768-73.216 73.216-73.216h146.432c40.448 0 73.216 32.768 73.216 73.216v86.016c0 33.28 27.136 59.904 59.904 59.904h118.784c40.448 0 73.216-32.768 73.216-73.216v-404.48H988.16c31.232 0 47.104-37.888 25.088-59.904z" p-id="12429"></path></svg>